<?xml version="1.0" standalone="yes"?>

<svg version="1.1" viewBox="0.0 0.0 40.0 50.0" fill="none" stroke="none" stroke-linecap="square" stroke-miterlimit="10" xmlns="http://www.w3.org/2000/svg" xmlns:xlink="http://www.w3.org/1999/xlink"><clipPath id="p.0"><path d="m0 0l40.0 0l0 50.0l-40.0 0l0 -50.0z" clip-rule="nonzero"></path></clipPath><g clip-path="url(#p.0)"><path fill="#000000" fill-opacity="0.0" d="m0 0l40.0 0l0 50.0l-40.0 0z" fill-rule="nonzero"></path><path fill="#000000" d="m19.982952 49.998894l-8.094488 -8.125984l16.220472 0.03149414z" fill-rule="nonzero"></path><path fill="#ea9999" d="m23.474598 8.78776l5.8743477 -4.392959l-1.5220203 7.174502l-5.874346 4.3929596z" fill-rule="nonzero"></path><path fill="#ea9999" d="m24.124176 17.360786l4.458481 2.8493862l-12.79278 20.007124l-4.458482 -2.8493843z" fill-rule="nonzero"></path><path fill="#ea9999" d="m11.172373 37.61661l0 0c0.728426 -1.1392136 2.3169975 -1.4248734 3.548173 -0.6380348l0 0c1.2311764 0.7868347 1.6387358 2.3482056 0.91030884 3.487423l0 0c-0.728426 1.1392136 -2.3169975 1.4248695 -3.548173 0.6380348l0 0c-1.2311764 -0.7868347 -1.6387348 -2.3482094 -0.91030884 -3.487423z" fill-rule="nonzero"></path><path fill="#ffffff" d="m12.214544 38.032837l0 0c0.40944195 -0.6403389 1.2938614 -0.8063431 1.9754047 -0.3707695l0 0c0.32728863 0.20916748 0.5630655 0.5319214 0.6554613 0.8972626c0.092396736 0.365345 0.03384304 0.74334335 -0.1627779 1.0508461l0 0c-0.40944195 0.6403427 -1.2938604 0.8063431 -1.9754047 0.37077332l0 0c-0.68154335 -0.43556976 -0.90212536 -1.3077698 -0.4926834 -1.9481125z" fill-rule="nonzero"></path><path fill="#ea9999" d="m32.23459 14.3862095l5.874344 -4.3929586l-1.5220184 7.1745024l-5.874346 4.3929596z" fill-rule="nonzero"></path><path fill="#ea9999" d="m29.36816 4.407815l3.051937 1.9504724l-7.7239437 12.079773l-3.051937 -1.9504719z" fill-rule="nonzero"></path><path fill="#ea9999" d="m35.309963 8.2031355l2.7865486 1.7808657l-7.723942 12.079773l-2.7865524 -1.7808647z" fill-rule="nonzero"></path><path fill="#ea9999" d="m27.523392 12.755342l3.7950172 2.4253702l-3.2412987 5.069191l-3.7950172 -2.4253712z" fill-rule="nonzero"></path><path fill="#ea9999" d="m14.514895 23.689608l0 0c0.69436264 1.3204613 2.7300158 1.6170044 4.5467596 0.6623459c1.8167439 -0.9546566 2.726614 -2.7990055 2.0322514 -4.1194687l8.931627 16.985186c0.69436264 1.3204613 -0.2155075 3.1648102 -2.0322514 4.1194687c-1.8167439 0.9546585 -3.852398 0.6581154 -4.5467606 -0.6623459z" fill-rule="nonzero"></path><path fill="#f2c1c1" d="m14.514895 23.689608l0 0c-0.69436264 -1.3204632 0.2155075 -3.164812 2.0322504 -4.1194687c1.8167439 -0.9546585 3.852398 -0.6581154 4.5467606 0.6623459l0 0c0.69436264 1.3204632 -0.2155075 3.164812 -2.0322514 4.1194687c-1.8167439 0.9546585 -3.852397 0.6581154 -4.5467596 -0.6623459z" fill-rule="nonzero"></path><path fill="#000000" fill-opacity="0.0" d="m21.093906 20.232485l0 0c0.69436264 1.3204632 -0.2155075 3.164812 -2.0322514 4.1194687c-1.8167439 0.9546585 -3.852397 0.6581154 -4.5467596 -0.6623459l0 0c-0.69436264 -1.3204632 0.2155075 -3.164812 2.0322504 -4.1194687c1.8167439 -0.9546585 3.852398 -0.6581154 4.5467606 0.6623459l8.931627 16.985186c0.69436264 1.3204613 -0.2155075 3.1648102 -2.0322514 4.1194687c-1.8167439 0.9546585 -3.852398 0.6581154 -4.5467606 -0.6623459l-8.931626 -16.985186" fill-rule="nonzero"></path><path fill="#ea9999" d="m10.416438 10.685354l0 0c0.2556591 0.48618317 0.9746332 0.6114149 1.605875 0.27971172c0.6312418 -0.3317032 0.93571186 -0.99473095 0.68005276 -1.4809151l5.8287735 11.084519c0.2556591 0.48618317 -0.04881096 1.1492119 -0.6800537 1.4809151c-0.63124084 0.3317032 -1.3502159 0.2064724 -1.605875 -0.27971268z" fill-rule="nonzero"></path><path fill="#f2c1c1" d="m10.416438 10.685354l0 0c-0.25565815 -0.48618412 0.04881096 -1.1492119 0.68005276 -1.4809151c0.6312418 -0.3317032 1.3502159 -0.2064724 1.605875 0.27971172l0 0c0.2556591 0.48618412 -0.04881096 1.1492119 -0.68005276 1.4809151c-0.6312418 0.3317032 -1.3502159 0.20647144 -1.605875 -0.27971172z" fill-rule="nonzero"></path><path fill="#000000" fill-opacity="0.0" d="m12.702366 9.484151l0 0c0.2556591 0.48618412 -0.04881096 1.1492119 -0.68005276 1.4809151c-0.6312418 0.3317032 -1.3502159 0.20647144 -1.605875 -0.27971172l0 0c-0.25565815 -0.48618412 0.04881096 -1.1492119 0.68005276 -1.4809151c0.6312418 -0.3317032 1.3502159 -0.2064724 1.605875 0.27971172l5.8287735 11.084519c0.2556591 0.48618317 -0.04881096 1.1492119 -0.6800537 1.4809151c-0.63124084 0.3317032 -1.3502159 0.2064724 -1.605875 -0.27971268l-5.8287725 -11.084518" fill-rule="nonzero"></path><path fill="#ea9999" d="m6.3032885 14.780653l0 0c0.36118412 -0.18979359 0.03820753 -1.5146637 -0.72138834 -2.9591799c-0.7595959 -1.4445162 -1.6681676 -2.461669 -2.0293517 -2.2718744l10.06592 -5.2894135c0.36118412 -0.18979406 1.2697563 0.8273592 2.0293522 2.271875c0.7595949 1.4445162 1.082572 2.7693858 0.7213888 2.9591804z" fill-rule="nonzero"></path><path fill="#f2c1c1" d="m6.3032885 14.780653l0 0c-0.36118412 0.18979454 -1.2697558 -0.82735825 -2.0293517 -2.2718744c-0.7595959 -1.4445162 -1.0825725 -2.7693863 -0.72138834 -2.9591799l0 0c0.36118412 -0.18979454 1.2697558 0.82735825 2.0293517 2.2718744c0.7595959 1.4445162 1.0825725 2.7693863 0.72138834 2.9591799z" fill-rule="nonzero"></path><path fill="#000000" fill-opacity="0.0" d="m3.5525484 9.549599l0 0c0.36118412 -0.18979454 1.2697558 0.82735825 2.0293517 2.2718744c0.7595959 1.4445162 1.0825725 2.7693863 0.72138834 2.9591799l0 0c-0.36118412 0.18979454 -1.2697558 -0.82735825 -2.0293517 -2.2718744c-0.7595959 -1.4445162 -1.0825725 -2.7693863 -0.72138834 -2.9591799l10.06592 -5.2894135c0.36118412 -0.18979406 1.2697563 0.8273592 2.0293522 2.271875c0.7595949 1.4445162 1.082572 2.7693858 0.7213888 2.9591804l-10.065921 5.2894125" fill-rule="nonzero"></path><path fill="#ea9999" d="m-0.0012052772 9.423015l4.042189 -2.1240788l4.5387216 8.631241l-4.042189 2.1240778z" fill-rule="nonzero"></path><path fill="#ea9999" d="m11.202489 12.169143l0 0c-1.5023117 -2.8569317 -0.4174261 -6.382975 2.4231606 -7.875639c2.8405867 -1.4926641 6.3612013 -0.3867066 7.863513 2.4702253l0 0c-2.0855293 -0.65743685 -4.3419476 -0.45704842 -6.2716656 0.5569744c-1.929718 1.0140228 -3.374237 2.7583942 -4.015008 4.848439z" fill-rule="nonzero"></path></g></svg>

