<?xml version="1.0" standalone="yes"?>

<svg version="1.1" viewBox="0.0 0.0 50.0 50.0" fill="none" stroke="none" stroke-linecap="square" stroke-miterlimit="10" xmlns="http://www.w3.org/2000/svg" xmlns:xlink="http://www.w3.org/1999/xlink"><clipPath id="p.0"><path d="m0 0l50.0 0l0 50.0l-50.0 0l0 -50.0z" clip-rule="nonzero"></path></clipPath><g clip-path="url(#p.0)"><path fill="#000000" fill-opacity="0.0" d="m0 0l50.0 0l0 50.0l-50.0 0z" fill-rule="nonzero"></path><path fill="#fe2e2e" d="m0.85301834 8.553967l0 0c0 -4.4618545 3.6170478 -8.078902 8.078901 -8.078902l32.31464 0l0 0c2.1426582 0 4.1975555 0.85116756 5.7126465 2.3662555c1.5150871 1.5150878 2.366253 3.569988 2.366253 5.7126465l0 32.818577c0 4.461853 -3.6170464 8.078899 -8.078899 8.078899l-32.31464 0l0 0c-4.461854 0 -8.078901 -3.6170464 -8.078901 -8.078899z" fill-rule="nonzero"></path><path stroke="#000000" stroke-width="1.0" stroke-linejoin="round" stroke-linecap="butt" d="m0.85301834 8.553967l0 0c0 -4.4618545 3.6170478 -8.078902 8.078901 -8.078902l32.31464 0l0 0c2.1426582 0 4.1975555 0.85116756 5.7126465 2.3662555c1.5150871 1.5150878 2.366253 3.569988 2.366253 5.7126465l0 32.818577c0 4.461853 -3.6170464 8.078899 -8.078899 8.078899l-32.31464 0l0 0c-4.461854 0 -8.078901 -3.6170464 -8.078901 -8.078899z" fill-rule="nonzero"></path><path fill="#fe2e2e" d="m18.06142 26.882788l12.703285 0l3.1759186 3.1759167l0 17.391014l0 0l-19.055119 0l0 0l0 -17.391014z" fill-rule="nonzero"></path><path stroke="#ffffff" stroke-width="1.0" stroke-linejoin="round" stroke-linecap="butt" d="m18.06142 26.882788l12.703285 0l3.1759186 3.1759167l0 17.391014l0 0l-19.055119 0l0 0l0 -17.391014z" fill-rule="nonzero"></path><path fill="#ffffff" d="m29.862938 26.879396l-5.448818 16.881891l-5.44882 -16.881891z" fill-rule="nonzero"></path><path fill="#fe2e2e" d="m13.834645 16.880575l0 0c0 -5.7837687 4.9989004 -10.472441 11.165355 -10.472441l0 0c2.961237 0 5.8011875 1.1033435 7.8950996 3.067307c2.0939064 1.9639635 3.270256 4.6276703 3.270256 7.4051332l0 0c0 5.7837696 -4.9989014 10.472443 -11.165356 10.472443l0 0c-6.1664543 0 -11.165355 -4.688673 -11.165355 -10.472443z" fill-rule="nonzero"></path><path stroke="#ffffff" stroke-width="1.0" stroke-linejoin="round" stroke-linecap="butt" d="m13.834645 16.880575l0 0c0 -5.7837687 4.9989004 -10.472441 11.165355 -10.472441l0 0c2.961237 0 5.8011875 1.1033435 7.8950996 3.067307c2.0939064 1.9639635 3.270256 4.6276703 3.270256 7.4051332l0 0c0 5.7837696 -4.9989014 10.472443 -11.165356 10.472443l0 0c-6.1664543 0 -11.165355 -4.688673 -11.165355 -10.472443z" fill-rule="nonzero"></path><path fill="#fe2e2e" d="m15.7148905 3.734908l0 0c0 0.654479 4.0682154 1.1850395 9.086614 1.1850395c5.0183983 0 9.086615 -0.5305605 9.086615 -1.1850395l0 7.110236c0 0.654479 -4.0682163 1.1850395 -9.086615 1.1850395c-5.0183983 0 -9.086614 -0.5305605 -9.086614 -1.1850395z" fill-rule="nonzero"></path><path fill="#fe8181" d="m15.7148905 3.734908l0 0c0 -0.654479 4.0682154 -1.1850393 9.086614 -1.1850393c5.0183983 0 9.086615 0.53056026 9.086615 1.1850393l0 0c0 0.654479 -4.0682163 1.1850395 -9.086615 1.1850395c-5.0183983 0 -9.086614 -0.5305605 -9.086614 -1.1850395z" fill-rule="nonzero"></path><path fill="#000000" fill-opacity="0.0" d="m33.88812 3.734908l0 0c0 0.654479 -4.0682163 1.1850395 -9.086615 1.1850395c-5.0183983 0 -9.086614 -0.5305605 -9.086614 -1.1850395l0 0c0 -0.654479 4.0682154 -1.1850393 9.086614 -1.1850393c5.0183983 0 9.086615 0.53056026 9.086615 1.1850393l0 7.110236c0 0.654479 -4.0682163 1.1850395 -9.086615 1.1850395c-5.0183983 0 -9.086614 -0.5305605 -9.086614 -1.1850395l0 -7.110236" fill-rule="nonzero"></path><path stroke="#ffffff" stroke-width="1.0" stroke-linejoin="round" stroke-linecap="butt" d="m33.88812 3.734908l0 0c0 0.654479 -4.0682163 1.1850395 -9.086615 1.1850395c-5.0183983 0 -9.086614 -0.5305605 -9.086614 -1.1850395l0 0c0 -0.654479 4.0682154 -1.1850393 9.086614 -1.1850393c5.0183983 0 9.086615 0.53056026 9.086615 1.1850393l0 7.110236c0 0.654479 -4.0682163 1.1850395 -9.086615 1.1850395c-5.0183983 0 -9.086614 -0.5305605 -9.086614 -1.1850395l0 -7.110236" fill-rule="nonzero"></path><path fill="#000000" fill-opacity="0.0" d="m28.715445 35.002308l3.4960613 0" fill-rule="nonzero"></path><path stroke="#ffffff" stroke-width="1.0" stroke-linejoin="round" stroke-linecap="butt" d="m28.715445 35.002308l3.4960613 0" fill-rule="nonzero"></path><path fill="#fe2e2e" d="m23.139769 30.148573l0 0c0 -0.67839813 0.57110023 -1.2283478 1.275589 -1.2283478l0 0c0.33830833 0 0.6627598 0.12941551 0.90197945 0.35977554c0.23921967 0.23036003 0.37361145 0.5427933 0.37361145 0.86857224l0 0c0 0.6783962 -0.57110023 1.2283459 -1.2755909 1.2283459l0 0c-0.70448875 0 -1.275589 -0.54994965 -1.275589 -1.2283459z" fill-rule="nonzero"></path><path fill="#fe2e2e" d="m23.139769 34.146336l0 0c0 -0.6783943 0.57110023 -1.228344 1.275589 -1.228344l0 0c0.33830833 0 0.6627598 0.1294136 0.90197945 0.35977173c0.23921967 0.23036194 0.37361145 0.5427971 0.37361145 0.86857224l0 0c0 0.67839813 -0.57110023 1.2283478 -1.2755909 1.2283478l0 0c-0.70448875 0 -1.275589 -0.54994965 -1.275589 -1.2283478z" fill-rule="nonzero"></path></g></svg>

