<?xml version="1.0" standalone="yes"?>

<svg version="1.1" viewBox="0.0 0.0 50.0 50.0" fill="none" stroke="none" stroke-linecap="square" stroke-miterlimit="10" xmlns="http://www.w3.org/2000/svg" xmlns:xlink="http://www.w3.org/1999/xlink"><clipPath id="p.0"><path d="m0 0l50.0 0l0 50.0l-50.0 0l0 -50.0z" clip-rule="nonzero"></path></clipPath><g clip-path="url(#p.0)"><path fill="#000000" fill-opacity="0.0" d="m0 0l50.0 0l0 50.0l-50.0 0z" fill-rule="nonzero"></path><path fill="#fe2e2e" d="m0.85301834 8.553967l0 0c0 -4.4618545 3.6170478 -8.078902 8.078901 -8.078902l32.31464 0l0 0c2.1426582 0 4.1975555 0.85116756 5.7126465 2.3662555c1.5150871 1.5150878 2.366253 3.569988 2.366253 5.7126465l0 32.818577c0 4.461853 -3.6170464 8.078899 -8.078899 8.078899l-32.31464 0l0 0c-4.461854 0 -8.078901 -3.6170464 -8.078901 -8.078899z" fill-rule="nonzero"></path><path stroke="#000000" stroke-width="1.0" stroke-linejoin="round" stroke-linecap="butt" d="m0.85301834 8.553967l0 0c0 -4.4618545 3.6170478 -8.078902 8.078901 -8.078902l32.31464 0l0 0c2.1426582 0 4.1975555 0.85116756 5.7126465 2.3662555c1.5150871 1.5150878 2.366253 3.569988 2.366253 5.7126465l0 32.818577c0 4.461853 -3.6170464 8.078899 -8.078899 8.078899l-32.31464 0l0 0c-4.461854 0 -8.078901 -3.6170464 -8.078901 -8.078899z" fill-rule="nonzero"></path><path fill="#ffffff" d="m12.168626 21.551334l0 0c0 -2.204649 1.5594673 -3.9918709 3.4831686 -3.9918709l0 0c0.9237938 0 1.8097515 0.42057228 2.4629726 1.1691933c0.6532192 0.748621 1.020195 1.7639694 1.020195 2.8226776l0 0c0 2.2046509 -1.5594673 3.9918709 -3.4831676 3.9918709l0 0c-1.9237013 0 -3.4831686 -1.78722 -3.4831686 -3.9918709z" fill-rule="nonzero"></path><path fill="#ffffff" d="m13.419967 46.039734l0 0c-4.7230406 -1.2125893 -7.8713565 -7.7192116 -7.0330315 -14.53516c0.838325 -6.8159466 5.346033 -11.361767 10.069779 -10.154919l-1.5147705 12.345963z" fill-rule="nonzero"></path><path fill="#ffffff" d="m18.1844 46.039734l0 0c4.7230396 -1.2125893 7.871357 -7.7192116 7.0330315 -14.53516c-0.8383255 -6.8159466 -5.346033 -11.361767 -10.069778 -10.154919l1.5147705 12.345963z" fill-rule="nonzero"></path><path fill="#000000" fill-opacity="0.0" d="m13.188822 18.728657l-2.7476788 -3.5446491" fill-rule="nonzero"></path><path stroke="#ffffff" stroke-width="1.0" stroke-linejoin="round" stroke-linecap="butt" d="m13.188822 18.728657l-2.7476788 -3.5446491" fill-rule="nonzero"></path><path fill="#000000" fill-opacity="0.0" d="m20.97324 15.189976l-2.7476788 3.5446491" fill-rule="nonzero"></path><path stroke="#ffffff" stroke-width="1.0" stroke-linejoin="round" stroke-linecap="butt" d="m20.97324 15.189976l-2.7476788 3.5446491" fill-rule="nonzero"></path><path fill="#000000" fill-opacity="0.0" d="m5.2206554 21.159533c0 2.3769016 1.56812 3.5653534 3.136239 4.753805c1.56812 1.1884499 3.13624 2.3769016 3.13624 4.7538033" fill-rule="nonzero"></path><path stroke="#ffffff" stroke-width="1.0" stroke-linejoin="round" stroke-linecap="butt" d="m5.2206554 21.159533c0 2.3769016 1.56812 3.5653534 3.136239 4.753805c1.56812 1.1884499 3.13624 2.3769016 3.13624 4.7538033" fill-rule="nonzero"></path><path fill="#000000" fill-opacity="0.0" d="m20.31153 30.68947c0 -2.3769035 1.568121 -3.5653534 3.13624 -4.753805c1.568119 -1.1884518 3.13624 -2.3769016 3.13624 -4.753805" fill-rule="nonzero"></path><path stroke="#ffffff" stroke-width="1.0" stroke-linejoin="round" stroke-linecap="butt" d="m20.31153 30.68947c0 -2.3769035 1.568121 -3.5653534 3.13624 -4.753805c1.568119 -1.1884518 3.13624 -2.3769016 3.13624 -4.753805" fill-rule="nonzero"></path><path fill="#000000" fill-opacity="0.0" d="m20.31153 36.722355c0 2.3769035 1.568121 3.5653534 3.13624 4.753807c1.568119 1.1884499 3.13624 2.3769035 3.13624 4.7538033" fill-rule="nonzero"></path><path stroke="#ffffff" stroke-width="1.0" stroke-linejoin="round" stroke-linecap="butt" d="m20.31153 36.722355c0 2.3769035 1.568121 3.5653534 3.13624 4.753807c1.568119 1.1884499 3.13624 2.3769035 3.13624 4.7538033" fill-rule="nonzero"></path><path fill="#000000" fill-opacity="0.0" d="m11.502743 36.723927c0 2.3769035 -1.56812 3.5653534 -3.136239 4.753807c-1.56812 1.1884499 -3.1362395 2.3768997 -3.1362395 4.7538033" fill-rule="nonzero"></path><path stroke="#ffffff" stroke-width="1.0" stroke-linejoin="round" stroke-linecap="butt" d="m11.502743 36.723927c0 2.3769035 -1.56812 3.5653534 -3.136239 4.753807c-1.56812 1.1884499 -3.1362395 2.3768997 -3.1362395 4.7538033" fill-rule="nonzero"></path><path fill="#000000" fill-opacity="0.0" d="m10.436876 28.938856c0 2.3769016 -1.568119 3.5653515 -3.136239 4.753805c-1.5681195 1.1884499 -3.1362395 2.3768997 -3.1362395 4.7538033" fill-rule="nonzero"></path><path stroke="#ffffff" stroke-width="1.0" stroke-linejoin="round" stroke-linecap="butt" d="m10.436876 28.938856c0 2.3769016 -1.568119 3.5653515 -3.136239 4.753805c-1.5681195 1.1884499 -3.1362395 2.3768997 -3.1362395 4.7538033" fill-rule="nonzero"></path><path fill="#000000" fill-opacity="0.0" d="m20.969315 28.89846c0 2.3769035 1.568119 3.5653534 3.136238 4.753807c1.568121 1.1884499 3.13624 2.3768997 3.13624 4.7538033" fill-rule="nonzero"></path><path stroke="#ffffff" stroke-width="1.0" stroke-linejoin="round" stroke-linecap="butt" d="m20.969315 28.89846c0 2.3769035 1.568119 3.5653534 3.136238 4.753807c1.568121 1.1884499 3.13624 2.3768997 3.13624 4.7538033" fill-rule="nonzero"></path><path fill="#000000" fill-opacity="0.0" d="m36.346863 1.4545602l-0.102386475 30.047636" fill-rule="nonzero"></path><path stroke="#ffffff" stroke-width="2.0" stroke-linejoin="round" stroke-linecap="butt" d="m36.346863 1.4545602l-0.102386475 30.047636" fill-rule="nonzero"></path><path fill="#ffffff" d="m27.24534 46.773506l17.99827 0l-3.5996552 -15.271311l-10.798962 0z" fill-rule="nonzero"></path><path fill="#000000" fill-opacity="0.0" d="m28.005194 37.950855l16.825663 -0.070121765" fill-rule="nonzero"></path><path stroke="#fe2e2e" stroke-width="1.0" stroke-linejoin="round" stroke-linecap="butt" d="m28.005194 37.950855l16.825663 -0.070121765" fill-rule="nonzero"></path></g></svg>

