<?xml version="1.0" standalone="yes"?>

<svg version="1.1" viewBox="0.0 0.0 50.0 50.0" fill="none" stroke="none" stroke-linecap="square" stroke-miterlimit="10" xmlns="http://www.w3.org/2000/svg" xmlns:xlink="http://www.w3.org/1999/xlink"><clipPath id="p.0"><path d="m0 0l50.0 0l0 50.0l-50.0 0l0 -50.0z" clip-rule="nonzero"></path></clipPath><g clip-path="url(#p.0)"><path fill="#000000" fill-opacity="0.0" d="m0 0l50.0 0l0 50.0l-50.0 0z" fill-rule="nonzero"></path><path fill="#fe2e2e" d="m0.85301834 8.553967l0 0c0 -4.4618545 3.6170478 -8.078902 8.078901 -8.078902l32.31464 0l0 0c2.1426582 0 4.1975555 0.85116756 5.7126465 2.3662555c1.5150871 1.5150878 2.366253 3.569988 2.366253 5.7126465l0 32.818577c0 4.461853 -3.6170464 8.078899 -8.078899 8.078899l-32.31464 0l0 0c-4.461854 0 -8.078901 -3.6170464 -8.078901 -8.078899z" fill-rule="nonzero"></path><path stroke="#000000" stroke-width="1.0" stroke-linejoin="round" stroke-linecap="butt" d="m0.85301834 8.553967l0 0c0 -4.4618545 3.6170478 -8.078902 8.078901 -8.078902l32.31464 0l0 0c2.1426582 0 4.1975555 0.85116756 5.7126465 2.3662555c1.5150871 1.5150878 2.366253 3.569988 2.366253 5.7126465l0 32.818577c0 4.461853 -3.6170464 8.078899 -8.078899 8.078899l-32.31464 0l0 0c-4.461854 0 -8.078901 -3.6170464 -8.078901 -8.078899z" fill-rule="nonzero"></path><path fill="#ffffff" d="m29.790173 8.718735l7.2429504 -3.8546615l-2.8787422 7.622271l-7.2429543 3.854661z" fill-rule="nonzero"></path><path fill="#ffffff" d="m29.08718 18.232567l4.4706516 3.8595028l-17.506525 19.850546l-4.4706526 -3.8595047z" fill-rule="nonzero"></path><path fill="#ffffff" d="m11.363036 38.32987l0 0c0.99682903 -1.1302986 2.805708 -1.1826096 4.040244 -0.11683655l0 0c1.2345371 1.065773 1.4272366 2.8460388 0.43040848 3.9763374l0 0c-0.99682903 1.1302986 -2.805708 1.1826057 -4.040244 0.11683273l0 0c-1.2345371 -1.0657692 -1.4272366 -2.8460388 -0.43040848 -3.9763336z" fill-rule="nonzero"></path><path fill="#fe2e2e" d="m12.449527 38.957905l0 0c0.5603094 -0.6353302 1.5685377 -0.67209244 2.2519417 -0.08211517l0 0c0.32818222 0.28332138 0.53603554 0.6762352 0.5778341 1.092308c0.04179859 0.41607285 -0.08588028 0.8212204 -0.3549509 1.1263161l0 0c-0.56030846 0.635334 -1.5685368 0.67209625 -2.2519417 0.08211517l0 0c-0.68340397 -0.5899811 -0.7831917 -1.5832939 -0.22288322 -2.218624z" fill-rule="nonzero"></path><path fill="#ffffff" d="m38.574074 16.301853l7.2429504 -3.854661l-2.8787422 7.6222715l-7.2429543 3.854662z" fill-rule="nonzero"></path><path fill="#ffffff" d="m37.05227 4.8815126l3.0602684 2.641921l-10.569977 11.985235l-3.0602684 -2.641922z" fill-rule="nonzero"></path><path fill="#ffffff" d="m43.01063 10.022813l2.7941551 2.4121885l-10.569977 11.985235l-2.794159 -2.4121895z" fill-rule="nonzero"></path><path fill="#ffffff" d="m33.62091 13.737868l3.8053741 3.2851725l-4.4356155 5.029518l-3.805376 -3.2851715z" fill-rule="nonzero"></path><path fill="#ffffff" d="m20.531322 25.87692l0 0c1.0225773 1.3155632 3.3302937 1.256876 5.1544266 -0.13108253c1.8241329 -1.3879585 2.4739208 -3.5795975 1.4513435 -4.8951607l13.109901 16.866096c1.0225792 1.315567 0.3727913 3.5072021 -1.4513435 4.8951607c-1.824131 1.3879585 -4.1318474 1.4466476 -5.1544266 0.13108444z" fill-rule="nonzero"></path><path fill="#ffffff" d="m20.531322 25.87692l0 0c-1.0225792 -1.3155651 -0.3727913 -3.5072021 1.4513416 -4.8951607c1.8241329 -1.3879585 4.1318493 -1.4466457 5.1544285 -0.13108253l0 0c1.0225773 1.3155632 0.37278938 3.5072021 -1.4513435 4.8951607c-1.8241329 1.3879585 -4.1318493 1.4466457 -5.1544266 0.13108253z" fill-rule="nonzero"></path><path fill="#000000" fill-opacity="0.0" d="m27.137093 20.850677l0 0c1.0225773 1.3155632 0.37278938 3.5072021 -1.4513435 4.8951607c-1.8241329 1.3879585 -4.1318493 1.4466457 -5.1544266 0.13108253l0 0c-1.0225792 -1.3155651 -0.3727913 -3.5072021 1.4513416 -4.8951607c1.8241329 -1.3879585 4.1318493 -1.4466457 5.1544285 -0.13108253l13.109901 16.866096c1.0225792 1.315567 0.3727913 3.5072021 -1.4513435 4.8951607c-1.824131 1.3879585 -4.1318474 1.4466476 -5.1544266 0.13108444l-13.109901 -16.866098" fill-rule="nonzero"></path><path fill="#ffffff" d="m13.510377 12.431445l0 0c0.3765049 0.48438072 1.1955271 0.4861021 1.8293362 0.0038452148c0.63380814 -0.4822569 0.8423948 -1.265871 0.46588898 -1.7502518l8.558236 11.010308c0.3765049 0.4843788 0.16791916 1.2679939 -0.46589088 1.7502499c-0.63380814 0.48225784 -1.4528294 0.4805355 -1.8293343 -0.0038433075z" fill-rule="nonzero"></path><path fill="#ffffff" d="m13.510377 12.431445l0 0c-0.37650585 -0.48437977 -0.16792011 -1.2679939 0.46588898 -1.7502508c0.6338091 -0.4822569 1.4528303 -0.4805355 1.8293362 0.0038442612l0 0c0.37650585 0.48438072 0.16791916 1.2679949 -0.46588898 1.7502518c-0.6338091 0.4822569 -1.4528313 0.4805355 -1.8293362 -0.0038452148z" fill-rule="nonzero"></path><path fill="#000000" fill-opacity="0.0" d="m15.805602 10.685039l0 0c0.37650585 0.48438072 0.16791916 1.2679949 -0.46588898 1.7502518c-0.6338091 0.4822569 -1.4528313 0.4805355 -1.8293362 -0.0038452148l0 0c-0.37650585 -0.48437977 -0.16792011 -1.2679939 0.46588898 -1.7502508c0.6338091 -0.4822569 1.4528303 -0.4805355 1.8293362 0.0038442612l8.558236 11.010308c0.3765049 0.4843788 0.16791916 1.2679939 -0.46589088 1.7502499c-0.63380814 0.48225784 -1.4528294 0.4805355 -1.8293343 -0.0038433075l-8.558236 -11.010308" fill-rule="nonzero"></path><path fill="#ffffff" d="m9.747392 17.687284l0 0c0.36171532 -0.2752247 -0.24955368 -1.6619892 -1.3653088 -3.0974255c-1.1157541 -1.4354353 -2.31348 -2.3759727 -2.6751952 -2.100748l10.110258 -7.692761c0.36171627 -0.2752242 1.5594416 0.66531324 2.6751947 2.100749c1.1157551 1.4354358 1.7270241 2.8222003 1.3653088 3.097424z" fill-rule="nonzero"></path><path fill="#ffffff" d="m9.747392 17.687284l0 0c-0.36171532 0.2752247 -1.5594416 -0.6653137 -2.6751957 -2.100749c-1.1157541 -1.4354362 -1.7270236 -2.8222008 -1.3653083 -3.0974245l0 0c0.36171532 -0.2752247 1.5594411 0.66531277 2.6751952 2.100748c1.1157551 1.4354362 1.7270241 2.8222008 1.3653088 3.0974255z" fill-rule="nonzero"></path><path fill="#000000" fill-opacity="0.0" d="m5.7068877 12.489111l0 0c0.36171532 -0.2752247 1.5594411 0.66531277 2.6751952 2.100748c1.1157551 1.4354362 1.7270241 2.8222008 1.3653088 3.0974255l0 0c-0.36171532 0.2752247 -1.5594416 -0.6653137 -2.6751957 -2.100749c-1.1157541 -1.4354362 -1.7270236 -2.8222008 -1.3653083 -3.0974245l10.110258 -7.692761c0.36171627 -0.2752242 1.5594416 0.66531324 2.6751947 2.100749c1.1157551 1.4354358 1.7270241 2.8222003 1.3653088 3.097424l-10.110257 7.6927614" fill-rule="nonzero"></path><path fill="#ffffff" d="m1.7585193 13.022701l4.05863 -3.0881577l6.666832 8.576986l-4.05863 3.0881577z" fill-rule="nonzero"></path><path fill="#ffffff" d="m14.661114 13.90254l0 0c-2.2067146 -2.838974 -1.6834936 -6.899675 1.1686468 -9.06983c2.8521395 -2.1701553 6.9531527 -1.6279714 9.159865 1.2110019l0 0c-2.429781 -0.3236847 -4.8840675 0.32290077 -6.8216343 1.7971697c-1.9375668 1.4742689 -3.1992712 3.6551313 -3.506878 6.061659z" fill-rule="nonzero"></path></g></svg>

