<?xml version="1.0" standalone="yes"?>

<svg version="1.1" viewBox="0.0 0.0 50.0 50.0" fill="none" stroke="none" stroke-linecap="square" stroke-miterlimit="10" xmlns="http://www.w3.org/2000/svg" xmlns:xlink="http://www.w3.org/1999/xlink"><clipPath id="p.0"><path d="m0 0l50.0 0l0 50.0l-50.0 0l0 -50.0z" clip-rule="nonzero"></path></clipPath><g clip-path="url(#p.0)"><path fill="#000000" fill-opacity="0.0" d="m0 0l50.0 0l0 50.0l-50.0 0z" fill-rule="nonzero"></path><path fill="#fe2e2e" d="m0.85301834 8.553967l0 0c0 -4.4618545 3.6170478 -8.078902 8.078901 -8.078902l32.31464 0l0 0c2.1426582 0 4.1975555 0.85116756 5.7126465 2.3662555c1.5150871 1.5150878 2.366253 3.569988 2.366253 5.7126465l0 32.818577c0 4.461853 -3.6170464 8.078899 -8.078899 8.078899l-32.31464 0l0 0c-4.461854 0 -8.078901 -3.6170464 -8.078901 -8.078899z" fill-rule="nonzero"></path><path stroke="#000000" stroke-width="1.0" stroke-linejoin="round" stroke-linecap="butt" d="m0.85301834 8.553967l0 0c0 -4.4618545 3.6170478 -8.078902 8.078901 -8.078902l32.31464 0l0 0c2.1426582 0 4.1975555 0.85116756 5.7126465 2.3662555c1.5150871 1.5150878 2.366253 3.569988 2.366253 5.7126465l0 32.818577c0 4.461853 -3.6170464 8.078899 -8.078899 8.078899l-32.31464 0l0 0c-4.461854 0 -8.078901 -3.6170464 -8.078901 -8.078899z" fill-rule="nonzero"></path><path fill="#ffffff" d="m39.106815 17.338274l0 0c0 -1.6699 1.4594803 -3.0236216 3.259842 -3.0236216l0 0c1.8003616 0 3.259842 1.3537216 3.259842 3.0236216l0 0c0 1.6699009 -1.4594803 3.0236225 -3.259842 3.0236225l0 0c-1.8003616 0 -3.259842 -1.3537216 -3.259842 -3.0236225z" fill-rule="nonzero"></path><path fill="#ffffff" d="m38.700394 22.318943l0 0c0 -0.6494179 0.52645874 -1.1758766 1.1758766 -1.1758766l4.7033653 0l0 0c0.31186295 0 0.61095047 0.123888016 0.8314705 0.34440613c0.22052002 0.22052002 0.34440613 0.51960945 0.34440613 0.8314705l0 7.726988c0 0.6494179 -0.5264549 1.1758766 -1.1758766 1.1758766l-4.7033653 0c-0.6494179 0 -1.1758766 -0.52645874 -1.1758766 -1.1758766z" fill-rule="nonzero"></path><path fill="#ffffff" d="m17.527796 31.919231l0 0c0 -1.669899 1.4594803 -3.0236206 3.259842 -3.0236206l0 0c1.8003616 0 3.2598438 1.3537216 3.2598438 3.0236206l0 0c0 1.6699028 -1.4594822 3.0236244 -3.2598438 3.0236244l0 0c-1.8003616 0 -3.259842 -1.3537216 -3.259842 -3.0236244z" fill-rule="nonzero"></path><path fill="#ffffff" d="m17.121376 36.899902l0 0c0 -0.6494179 0.52645874 -1.1758766 1.1758766 -1.1758766l4.7033653 0l0 0c0.31186295 0 0.61095047 0.12388611 0.8314705 0.34440613c0.22052002 0.22052002 0.34440613 0.51960754 0.34440613 0.8314705l0 7.726986c0 0.6494179 -0.52645683 1.1758766 -1.1758766 1.1758766l-4.7033653 0c-0.6494179 0 -1.1758766 -0.52645874 -1.1758766 -1.1758766z" fill-rule="nonzero"></path><path fill="#ffffff" d="m4.651807 17.295l0 0c0 -1.6699009 1.4594812 -3.0236225 3.2598424 -3.0236225l0 0c1.8003612 0 3.2598424 1.3537216 3.2598424 3.0236225l0 0c0 1.6699009 -1.4594812 3.0236225 -3.2598424 3.0236225l0 0c-1.8003612 0 -3.2598424 -1.3537216 -3.2598424 -3.0236225z" fill-rule="nonzero"></path><path fill="#ffffff" d="m4.2453876 22.27567l0 0c0 -0.6494179 0.5264578 -1.1758766 1.1758766 -1.1758766l4.703365 0l0 0c0.311862 0 0.61095047 0.12388611 0.8314705 0.34440613c0.22052002 0.22052002 0.34440613 0.51960945 0.34440613 0.8314705l0 7.726988c0 0.6494179 -0.5264578 1.1758766 -1.1758766 1.1758766l-4.703365 0c-0.64941883 0 -1.1758766 -0.52645874 -1.1758766 -1.1758766z" fill-rule="nonzero"></path><path fill="#000000" d="m26.93307 7.2204723l0 0c0 -1.6699004 1.4594822 -3.023622 3.2598438 -3.023622l0 0c1.8003616 0 3.259842 1.3537216 3.259842 3.023622l0 0c0 1.6699009 -1.4594803 3.0236225 -3.259842 3.0236225l0 0c-1.8003616 0 -3.2598438 -1.3537216 -3.2598438 -3.0236225z" fill-rule="nonzero"></path><path fill="#000000" d="m26.526651 12.201141l0 0c0 -0.64941883 0.52645683 -1.1758766 1.1758766 -1.1758766l4.7033634 0l0 0c0.31186295 0 0.61095047 0.12388706 0.8314705 0.34440708c0.22052002 0.22051907 0.34440613 0.51960754 0.34440613 0.83146954l0 7.726988c0 0.6494179 -0.52645874 1.1758766 -1.1758766 1.1758766l-4.7033634 0c-0.6494198 0 -1.1758766 -0.52645874 -1.1758766 -1.1758766z" fill-rule="nonzero"></path><path fill="#ffffff" d="m14.171593 27.954266l4.729105 -10.466692l18.916418 0l-4.729103 10.466692z" fill-rule="nonzero"></path></g></svg>

