<?xml version="1.0" standalone="yes"?>

<svg version="1.1" viewBox="0.0 0.0 50.0 50.0" fill="none" stroke="none" stroke-linecap="square" stroke-miterlimit="10" xmlns="http://www.w3.org/2000/svg" xmlns:xlink="http://www.w3.org/1999/xlink"><clipPath id="p.0"><path d="m0 0l50.0 0l0 50.0l-50.0 0l0 -50.0z" clip-rule="nonzero"></path></clipPath><g clip-path="url(#p.0)"><path fill="#000000" fill-opacity="0.0" d="m0 0l50.0 0l0 50.0l-50.0 0z" fill-rule="nonzero"></path><path fill="#fe2e2e" d="m0.85301834 8.553967l0 0c0 -4.4618545 3.6170478 -8.078902 8.078901 -8.078902l32.31464 0l0 0c2.1426582 0 4.1975555 0.85116756 5.7126465 2.3662555c1.5150871 1.5150878 2.366253 3.569988 2.366253 5.7126465l0 32.818577c0 4.461853 -3.6170464 8.078899 -8.078899 8.078899l-32.31464 0l0 0c-4.461854 0 -8.078901 -3.6170464 -8.078901 -8.078899z" fill-rule="nonzero"></path><path stroke="#000000" stroke-width="1.0" stroke-linejoin="round" stroke-linecap="butt" d="m0.85301834 8.553967l0 0c0 -4.4618545 3.6170478 -8.078902 8.078901 -8.078902l32.31464 0l0 0c2.1426582 0 4.1975555 0.85116756 5.7126465 2.3662555c1.5150871 1.5150878 2.366253 3.569988 2.366253 5.7126465l0 32.818577c0 4.461853 -3.6170464 8.078899 -8.078899 8.078899l-32.31464 0l0 0c-4.461854 0 -8.078901 -3.6170464 -8.078901 -8.078899z" fill-rule="nonzero"></path><path fill="#ffffff" d="m4.266228 26.269657l0 0c-0.022144318 -3.3308563 1.2605224 -6.5330486 3.563509 -8.896339c2.3029866 -2.3632917 5.4359202 -3.6923246 8.703926 -3.6923246l0 12.503936z" fill-rule="nonzero"></path><path fill="#fe2e2e" d="m6.1121135 23.874395l0 0c-0.019685268 -2.145296 0.9488239 -4.208601 2.6904092 -5.7316284c1.7415848 -1.5230274 4.112052 -2.3796768 6.5848875 -2.3796768l0 8.047243z" fill-rule="nonzero"></path><path fill="#ffffff" d="m4.2659464 26.492546l0 0c0 -0.87265587 0.707428 -1.5800838 1.5800843 -1.5800838l9.123297 0c0.41906452 0 0.8209648 0.16647339 1.1172876 0.46279716c0.29632378 0.29632187 0.46279716 0.6982231 0.46279716 1.1172867l0 6.3201485c0 0.87265396 -0.70742893 1.5800819 -1.5800848 1.5800819l-9.123297 0l0 0c-0.87265635 0 -1.5800843 -0.707428 -1.5800843 -1.5800819z" fill-rule="nonzero"></path><path fill="#ffffff" d="m15.077059 29.288082l29.165354 0l0 5.1338577l-29.165354 0z" fill-rule="nonzero"></path><path fill="#ffffff" d="m5.976756 34.502117l0 0c0 -2.513546 1.9882784 -4.55118 4.4409447 -4.55118l0 0c1.1778116 0 2.3073835 0.4794979 3.1402225 1.3330097c0.83283806 0.8535118 1.3007221 2.0111237 1.3007221 3.2181702l0 0c0 2.5135498 -1.9882784 4.551182 -4.4409447 4.551182l0 0c-2.4526663 0 -4.4409447 -2.037632 -4.4409447 -4.551182z" fill-rule="nonzero"></path><path stroke="#fe2e2e" stroke-width="1.0" stroke-linejoin="round" stroke-linecap="butt" d="m5.976756 34.502117l0 0c0 -2.513546 1.9882784 -4.55118 4.4409447 -4.55118l0 0c1.1778116 0 2.3073835 0.4794979 3.1402225 1.3330097c0.83283806 0.8535118 1.3007221 2.0111237 1.3007221 3.2181702l0 0c0 2.5135498 -1.9882784 4.551182 -4.4409447 4.551182l0 0c-2.4526663 0 -4.4409447 -2.037632 -4.4409447 -4.551182z" fill-rule="nonzero"></path><path fill="#ffffff" d="m32.52731 34.502117l0 0c0 -2.513546 1.9882812 -4.55118 4.4409447 -4.55118l0 0c1.1778145 0 2.3073845 0.4794979 3.1402245 1.3330097c0.83283997 0.8535118 1.300724 2.0111237 1.300724 3.2181702l0 0c0 2.5135498 -1.9882812 4.551182 -4.4409485 4.551182l0 0c-2.4526634 0 -4.4409447 -2.037632 -4.4409447 -4.551182z" fill-rule="nonzero"></path><path stroke="#fe2e2e" stroke-width="1.0" stroke-linejoin="round" stroke-linecap="butt" d="m32.52731 34.502117l0 0c0 -2.513546 1.9882812 -4.55118 4.4409447 -4.55118l0 0c1.1778145 0 2.3073845 0.4794979 3.1402245 1.3330097c0.83283997 0.8535118 1.300724 2.0111237 1.300724 3.2181702l0 0c0 2.5135498 -1.9882812 4.551182 -4.4409485 4.551182l0 0c-2.4526634 0 -4.4409447 -2.037632 -4.4409447 -4.551182z" fill-rule="nonzero"></path><path fill="#ffffff" d="m17.54265 20.617403l8.220472 0l0 7.401575l-8.220472 0z" fill-rule="nonzero"></path><path fill="#ffffff" d="m26.76509 20.617403l8.220474 0l0 7.401575l-8.220474 0z" fill-rule="nonzero"></path><path fill="#ffffff" d="m35.987534 20.617403l8.22047 0l0 7.401575l-8.22047 0z" fill-rule="nonzero"></path><path fill="#ffffff" d="m22.057087 11.945287l8.220472 0l0 7.401574l-8.220472 0z" fill-rule="nonzero"></path><path fill="#ffffff" d="m31.263123 11.945287l8.220474 0l0 7.401574l-8.220474 0z" fill-rule="nonzero"></path></g></svg>

